Coordinates
version=1
nRows=9
nColumns=63
inDegrees=yes

Units are S.I. units (second, meters, Newtons, ...)
If the header above contains a line with 'inDegrees', this indicates whether rotational values are in degrees (yes) or radians (no).

endheader
time	pelvis_tilt	pelvis_list	pelvis_rotation	pelvis_tx	pelvis_ty	pelvis_tz	hip_flexion_r	hip_adduction_r	hip_rotation_r	knee_angle_r	knee_angle_r_beta	ankle_angle_r	subtalar_angle_r	mtp_angle_r	hip_flexion_l	hip_adduction_l	hip_rotation_l	knee_angle_l	knee_angle_l_beta	ankle_angle_l	subtalar_angle_l	mtp_angle_l	L5_S1_Flex_Ext	L5_S1_Lat_Bending	L5_S1_axial_rotation	L4_L5_Flex_Ext	L4_L5_Lat_Bending	L4_L5_axial_rotation	L3_L4_Flex_Ext	L3_L4_Lat_Bending	L3_L4_axial_rotation	L2_L3_Flex_Ext	L2_L3_Lat_Bending	L2_L3_axial_rotation	L1_L2_Flex_Ext	L1_L2_Lat_Bending	L1_L2_axial_rotation	L1_T12_Flex_Ext	L1_T12_Lat_Bending	L1_T12_axial_rotation	Abs_r3	Abs_r2	Abs_r1	Abs_t1	Abs_t2	neck_flexion	neck_bending	neck_rotation	arm_flex_r	arm_add_r	arm_rot_r	elbow_flex_r	pro_sup_r	wrist_flex_r	wrist_dev_r	arm_flex_l	arm_add_l	arm_rot_l	elbow_flex_l	pro_sup_l	wrist_flex_l	wrist_dev_l
     11.24200000	    -52.14059543	     -8.40535297	      1.21832831	     -0.37458562	      1.12329497	      0.03020161	    106.72683241	    -10.10469509	     -9.75003077	     77.50521834	      1.35272125	     21.27622821	      7.80102830	      0.00000000	     94.64563162	     -6.02077886	      7.12691291	     87.65707144	      1.52990451	     17.91193679	     10.51772861	      0.00000000	     -0.06878657	      0.94380420	      0.22160113	     -0.12774353	      1.25525958	      0.23545120	     -0.11300945	      2.29476553	      0.23545120	     -0.07861617	      2.29476553	      0.19390099	     -0.06387521	      1.92460552	      0.18005092	     -0.03930464	      1.46195270	      0.16620084	     -0.49133557	     10.67650186	      1.23247899	      0.00000000	      0.00000000	     -0.00000000	      0.00000000	      0.00000000	     78.43648590	    -16.50474893	     27.32914086	     29.36303496	     37.71840328	      0.00000000	      5.00000014	     76.14317857	     -5.94623931	     18.65814001	     27.73758227	     54.61466068	      0.00000000	      5.00000014
     11.25000000	    -52.15959212	     -8.61693356	      1.40726420	     -0.37485282	      1.12344955	      0.02966133	    105.46600475	    -10.25432248	    -10.36927119	     75.13841698	      1.31141277	     20.26137607	      7.97327275	      0.00000000	     95.69262219	     -5.79921644	      7.46512758	     89.97540444	      1.57036705	     18.34375130	     10.60120200	      0.00000000	     -0.06996403	      0.96847299	      0.18841355	     -0.12993019	      1.28806907	      0.20018940	     -0.11494390	      2.35474522	      0.20018940	     -0.07996189	      2.35474522	      0.16486186	     -0.06496860	      1.97491011	      0.15308601	     -0.03997745	      1.50016465	      0.14131016	     -0.49974605	     10.95556011	      1.04789965	      0.00000000	      0.00000000	     -0.00000000	      0.00000000	      0.00000000	     78.61046151	    -16.46442368	     27.38237619	     29.15998675	     37.71893888	      0.00000000	      5.00000014	     76.21059113	     -5.91048403	     18.75404046	     27.69040107	     54.66309491	      0.00000000	      5.00000014
     11.25800000	    -52.18544518	     -8.74242443	      1.59892385	     -0.37502404	      1.12359116	      0.02920297	    104.20494871	    -10.35010347	    -10.87165948	     72.80966912	      1.27076845	     19.16769278	      8.10143433	      0.00000000	     96.77117164	     -5.55909254	      7.74783843	     92.20525908	      1.60928536	     18.80139742	     10.78994312	      0.00000000	     -0.06938376	      0.98168157	      0.15213118	     -0.12885258	      1.30563649	      0.16163937	     -0.11399058	      2.38686057	      0.16163937	     -0.07929870	      2.38686057	      0.13311478	     -0.06442976	      2.00184506	      0.12360658	     -0.03964588	      1.52062475	      0.11409838	     -0.49560125	     11.10497827	      0.84610796	      0.00000000	      0.00000000	     -0.00000000	      0.00000000	      0.00000000	     78.73559517	    -16.42675653	     27.48883852	     28.99516434	     37.72929752	      0.00000000	      5.00000014	     76.29131294	     -5.90952033	     18.86900641	     27.61632727	     54.71854345	      0.00000000	      5.00000014
     11.26700000	    -52.18828103	     -8.78856393	      1.74005165	     -0.37500788	      1.12368815	      0.02870204	    102.90440197	    -10.38420850	    -11.33634276	     70.51742073	      1.23076117	     17.96023472	      8.20469455	      0.00000000	     97.84658001	     -5.29209334	      8.02370040	     94.39078083	      1.64742991	     19.21001060	     10.95629677	      0.00000000	     -0.06887053	      0.98628394	      0.12536027	     -0.12789946	      1.31175764	      0.13319528	     -0.11314739	      2.39805077	      0.13319528	     -0.07871213	      2.39805077	      0.10969023	     -0.06395317	      2.01123021	      0.10185522	     -0.03935262	      1.52775383	      0.09402020	     -0.49193530	     11.15704120	      0.69721620	      0.00000000	      0.00000000	     -0.00000000	      0.00000000	      0.00000000	     78.82603265	    -16.37718454	     27.55560094	     28.83158079	     37.75981358	      0.00000000	      5.00000014	     76.31811970	     -5.90528636	     19.01669399	     27.49354693	     54.74272840	      0.00000000	      5.00000014
     11.27500000	    -52.19360622	     -8.79311995	      1.94607999	     -0.37500593	      1.12371903	      0.02841615	    101.61131795	    -10.41985922	    -11.68679357	     68.30099603	      1.19207726	     16.76715648	      8.31679193	      0.00000000	     98.96949999	     -5.01278690	      8.22069526	     96.46436271	      1.68362074	     19.68432428	     11.11816915	      0.00000000	     -0.06902785	      0.97833452	      0.09104002	     -0.12819162	      1.30118491	      0.09673003	     -0.11340586	      2.37872254	      0.09673003	     -0.07889193	      2.37872254	      0.07966002	     -0.06409926	      1.99501974	      0.07397002	     -0.03944251	      1.51544016	      0.06828002	     -0.49305903	     11.06711570	      0.50633730	      0.00000000	      0.00000000	     -0.00000000	      0.00000000	      0.00000000	     78.87185602	    -16.37960527	     27.57706411	     28.68945537	     37.78241173	      0.00000000	      5.00000014	     76.43978331	     -5.90067461	     19.16729225	     27.43342507	     54.76375765	      0.00000000	      5.00000014
     11.28300000	    -52.16463160	     -8.57040212	      2.32493252	     -0.37482819	      1.12377719	      0.02788360	    100.32987260	    -10.58988848	    -11.79108188	     66.18305169	      1.15511216	     15.72679332	      8.49091031	      0.00000000	     99.99820208	     -4.50209671	      8.20739726	     98.36988701	      1.71687841	     20.19450090	     11.25663865	      0.00000000	     -0.07241441	      0.94310162	      0.01703911	     -0.13448080	      1.25432516	      0.01810405	     -0.11896963	      2.29305728	      0.01810405	     -0.08276243	      2.29305728	      0.01490922	     -0.06724402	      1.92317283	      0.01384428	     -0.04137759	      1.46086441	      0.01277933	     -0.51724889	     10.66855417	      0.09476642	      0.00000000	      0.00000000	     -0.00000000	      0.00000000	      0.00000000	     78.81626685	    -16.27618150	     27.59811139	     28.63787213	     37.78169493	      0.00000000	      5.00000014	     76.49993993	     -5.91883723	     19.25340943	     27.35970269	     54.79192765	      0.00000000	      5.00000014
     11.29200000	    -52.16163834	     -8.68215249	      2.27936660	     -0.37452889	      1.12376909	      0.02766644	     98.93351769	    -10.37412857	    -12.32397627	     63.97358199	      1.11654964	     14.36262172	      8.76176995	      0.00000000	    101.21450882	     -4.39153645	      8.60280021	    100.33711947	      1.75121310	     20.70609874	     11.52218636	      0.00000000	     -0.07130898	      0.95261103	      0.03479375	     -0.13242792	      1.26697267	      0.03696836	     -0.11715353	      2.31617846	      0.03696836	     -0.08149904	      2.31617846	      0.03044453	     -0.06621752	      1.94256441	      0.02826992	     -0.04074595	      1.47559449	      0.02609531	     -0.50935295	     10.77612650	      0.19351241	      0.00000000	      0.00000000	     -0.00000000	      0.00000000	      0.00000000	     78.87683664	    -16.27346028	     27.53291524	     28.37960310	     37.76310138	      0.00000000	      5.00000014	     76.53708961	     -5.83200678	     19.50985024	     27.23157462	     54.86512926	      0.00000000	      5.00000014
     11.30000000	    -52.10825144	     -8.86574573	      2.19807153	     -0.37402630	      1.12359592	      0.02758081	     97.49525994	    -10.09961894	    -12.98574903	     61.92442722	      1.08078514	     13.04750693	      8.76788982	      0.00000000	    102.42884037	     -4.30195635	      9.16876567	    102.25156495	      1.78462647	     21.37022031	     12.11649560	      0.00000000	     -0.07167475	      0.96910312	      0.05664047	     -0.13310718	      1.28890715	      0.06018050	     -0.11775445	      2.35627733	      0.06018050	     -0.08191707	      2.35627733	      0.04956041	     -0.06655718	      1.97619509	      0.04602038	     -0.04095495	      1.50114074	      0.04248035	     -0.51196559	     10.96268835	      0.31501731	      0.00000000	      0.00000000	     -0.00000000	      0.00000000	      0.00000000	     78.94630962	    -16.30971145	     27.64739518	     28.09543576	     37.76507106	      0.00000000	      5.00000014	     76.58365138	     -5.83825820	     20.25697457	     27.10784804	     55.09490722	      0.00000000	      5.00000014
     11.30800000	    -52.06329784	     -8.80164533	      2.33782846	     -0.37353899	      1.12346523	      0.02731325	     96.15868236	     -9.97741402	    -13.18511572	     59.98095123	      1.04686509	     11.90170145	      9.14048519	      0.00000000	    103.59797627	     -4.03457908	      9.30133041	    103.96580043	      1.81454553	     21.78885078	     12.07676710	      0.00000000	     -0.07182749	      0.95164842	      0.03363305	     -0.13339083	      1.26569240	      0.03573511	     -0.11800538	      2.31383796	      0.03573511	     -0.08209164	      2.31383796	      0.02942892	     -0.06669901	      1.94060145	      0.02732685	     -0.04104223	      1.47410340	      0.02522479	     -0.51305657	     10.76523724	      0.18705692	      0.00000000	      0.00000000	     -0.00000000	      0.00000000	      0.00000000	     78.90498591	    -16.29925259	     27.60022498	     27.85721053	     37.74758626	      0.00000000	      5.00000014	     76.60406916	     -5.80394507	     20.51461845	     27.02318500	     55.17275081	      0.00000000	      5.00000014
